<svg version="1.1" baseProfile="basic" id="Layer_1"
	 xmlns="http://www.w3.org/2000/svg" xmlns:xlink="http://www.w3.org/1999/xlink" x="0px" y="0px" viewBox="0 0 1355.2 148.4"
	 xml:space="preserve">
<g id="XMLID_421_">
	<g id="XMLID_422_">
		<path id="XMLID_423_" fill="#E50A7E" d="M1313.6,148.4h-16.1c-22.9,0-41.6-18.7-41.6-41.6c0-5.1,4.2-9.3,9.3-9.3s9.3,4.2,9.3,9.3
			c0,12.6,10.3,22.9,22.9,22.9h16.1c12.6,0,22.9-10.3,22.9-22.9s-10.3-22.9-22.9-22.9h-16.1c-22.9,0-41.6-18.7-41.6-41.6
			s18.7-41.6,41.6-41.6h16.1c22.9,0,41.6,18.7,41.6,41.6c0,5.2-4.2,9.3-9.3,9.3s-9.3-4.2-9.3-9.3c0-12.6-10.3-22.9-22.9-22.9h-16.1
			c-12.6,0-22.9,10.3-22.9,22.9s10.3,22.9,22.9,22.9h16.1c22.9,0,41.6,18.7,41.6,41.6S1336.5,148.4,1313.6,148.4z"/>
	</g>
	<g id="XMLID_424_">
		<path id="XMLID_425_" fill="#E50A7E" d="M1181.7,148c-5.1,0-9.3-4.2-9.3-9.3V9.3c0-5.1,4.2-9.3,9.3-9.3s9.3,4.2,9.3,9.3v129.4
			C1191,143.8,1186.8,148,1181.7,148z"/>
	</g>
	<g id="XMLID_426_">
		<path id="XMLID_427_" fill="#E50A7E" d="M1102.7,148h-51.2c-5.1,0-9.3-4.2-9.3-9.3V9.3c0-5.1,4.2-9.3,9.3-9.3s9.3,4.2,9.3,9.3v120
			h41.9c5.1,0,9.3,4.2,9.3,9.3S1107.8,148,1102.7,148z"/>
	</g>
	<g id="XMLID_428_">
		<path id="XMLID_429_" fill="#E50A7E" d="M932.2,147.7c-26.3,0-47.8-21.4-47.8-47.8V47.8c0-26.3,21.4-47.8,47.8-47.8
			S980,21.4,980,47.8v52.1C980,126.2,958.6,147.7,932.2,147.7z M932.2,18.6c-16.1,0-29.1,13.1-29.1,29.1v52.1
			c0,16.1,13.1,29.1,29.1,29.1s29.1-13.1,29.1-29.1V47.8C961.3,31.7,948.3,18.6,932.2,18.6z"/>
	</g>
	<g id="XMLID_432_">
		<path id="XMLID_433_" fill="#E50A7E" d="M754.5,148c-5.1,0-9.3-4.2-9.3-9.3V9.3c0-5.1,4.2-9.3,9.3-9.3h33.4
			c22.9,0,41.6,18.7,41.6,41.6s-18.7,41.6-41.6,41.6c-5.1,0-9.3-4.2-9.3-9.3c0-5.2,4.2-9.3,9.3-9.3c12.6,0,22.9-10.3,22.9-22.9
			s-10.3-22.9-22.9-22.9h-24.1v120C763.8,143.8,759.6,148,754.5,148z"/>
	</g>
	<path id="XMLID_434_" fill="#E50A7E" d="M642.4,147.7c-26.3,0-47.8-21.4-47.8-47.8V47.8c0-26.3,21.4-47.8,47.8-47.8
		s47.8,21.4,47.8,47.8v52.1C690.2,126.2,668.8,147.7,642.4,147.7z M642.4,18.6c-16.1,0-29.1,13.1-29.1,29.1v52.1
		c0,16.1,13.1,29.1,29.1,29.1s29.1-13.1,29.1-29.1V47.8C671.5,31.7,658.5,18.6,642.4,18.6z"/>
	<path id="XMLID_437_" fill="#E50A7E" d="M530.3,148c-5.2,0-9.3-4.2-9.3-9.3v-32.6c0-12.6-10.3-22.9-22.9-22.9
		c-5.1,0-9.3-4.2-9.3-9.3c0-5.2,4.2-9.3,9.3-9.3c12.6,0,22.9-10.3,22.9-22.9s-10.3-22.9-22.9-22.9H474v120c0,5.1-4.2,9.3-9.3,9.3
		s-9.3-4.2-9.3-9.3V9.3c0-5.1,4.2-9.3,9.3-9.3h33.4c22.9,0,41.6,18.7,41.6,41.6c0,13-6,24.6-15.4,32.3c9.4,7.6,15.4,19.3,15.4,32.3
		v32.6C539.7,143.8,535.5,148,530.3,148z"/>
	<path id="XMLID_438_" fill="#E50A7E" d="M352.6,147.7c-26.3,0-47.8-21.4-47.8-47.8V47.8c0-26.3,21.4-47.8,47.8-47.8
		s47.8,21.4,47.8,47.8c0,5.2-4.2,9.3-9.3,9.3s-9.3-4.2-9.3-9.3c0-16.1-13.1-29.1-29.1-29.1s-29.1,13.1-29.1,29.1v52.1
		c0,16.1,13.1,29.1,29.1,29.1s29.1-13.1,29.1-29.1c0-5.1,4.2-9.3,9.3-9.3s9.3,4.2,9.3,9.3C400.4,126.2,379,147.7,352.6,147.7z"/>
	<g id="XMLID_439_">
		<path id="XMLID_440_" fill="#E50A7E" d="M207.7,147.7c-26.3,0-47.8-21.4-47.8-47.8V47.8c0-26.3,21.4-47.8,47.8-47.8
			s47.8,21.4,47.8,47.8c0,5.2-4.2,9.3-9.3,9.3s-9.3-4.2-9.3-9.3c0-16.1-13.1-29.1-29.1-29.1s-29.1,13.1-29.1,29.1v52.1
			c0,16.1,13.1,29.1,29.1,29.1s29.1-13.1,29.1-29.1c0-5.1,4.2-9.3,9.3-9.3s9.3,4.2,9.3,9.3C255.5,126.2,234.1,147.7,207.7,147.7z"/>
	</g>
	<g id="XMLID_441_">
		<path id="XMLID_442_" fill="#E50A7E" d="M116.3,148c-3.7,0-7.1-2.2-8.6-5.7L62.8,34.7L17.9,142.3c-2,4.8-7.4,7-12.2,5
			c-4.8-2-7-7.4-5-12.2L54.2,6.9c1.4-3.5,4.8-5.7,8.6-5.7c3.8,0,7.2,2.3,8.6,5.7L125,135.1c2,4.8-0.3,10.2-5,12.2
			C118.8,147.8,117.5,148,116.3,148z"/>
	</g>
</g>
</svg>
