<?xml version="1.0" encoding="utf-8"?>
<!-- Generator: Adobe Illustrator 19.0.0, SVG Export Plug-In . SVG Version: 6.00 Build 0)  -->
<svg version="1.1" id="Calque_1" xmlns="http://www.w3.org/2000/svg" xmlns:xlink="http://www.w3.org/1999/xlink" x="0px" y="0px"
	 viewBox="-294 386.9 21.3 20.1" style="enable-background:new -294 386.9 21.3 20.1;" xml:space="preserve">
<style type="text/css">
	.st0{fill:#FFFFFF;}
</style>
<g id="XMLID_6_">
	<g>
		<path class="st0" d="M-202.8,378.5l-0.3,3.1h-2.4v8.9h-3.7v-8.9h-1.8v-3.1h1.8v-1.8c0-2.5,1-4,4-4h2.4v3.1h-1.5
			c-1.1,0-1.2,0.4-1.2,1.2l0,1.5H-202.8z"/>
	</g>
</g>
<g id="XMLID_1_">
	<g>
		<path class="st0" d="M-211.7,440.4c0.8,0.8,0.8,4.6,0.8,4.6c0,0,0,1.1-0.1,2.2l-1.5,0c0-0.1,0-0.2,0-0.3v-0.2h-1v0.2
			c0,0.3,0,0.5-0.1,0.5c-0.1,0.1-0.2,0.1-0.3,0.1c-0.2,0-0.3,0-0.3-0.1c-0.1-0.1-0.1-0.3-0.1-0.5v-0.9h1.8v-1.2
			c0-0.5-0.1-0.8-0.4-1.1c-0.2-0.2-0.6-0.4-1-0.4c-0.4,0-0.8,0.1-1,0.4c-0.3,0.3-0.4,0.6-0.4,1v2.2h-0.5v-2.3c0-0.4-0.1-0.7-0.2-0.9
			c-0.2-0.2-0.4-0.3-0.7-0.3c-0.1,0-0.3,0-0.4,0.1c-0.1,0.1-0.3,0.2-0.4,0.3v-2.1h-1v6.5h-0.7v-4.8h-0.9v3.7
			c-0.1,0.1-0.2,0.2-0.3,0.3c-0.1,0.1-0.2,0.1-0.3,0.1c-0.1,0-0.2,0-0.2-0.1c0,0-0.1-0.1-0.1-0.2v-3.7h-0.9l-0.4-0.8v-0.9h-3.3
			l-1.3-0.1c0.1-0.6,0.3-1,0.5-1.2c0.8-0.8,7.3-0.8,7.3-0.8S-212.5,439.6-211.7,440.4z"/>
		<path class="st0" d="M-212.5,447.2l1.5,0c-0.1,1-0.3,2.1-0.7,2.4c-0.8,0.8-7.3,0.8-7.3,0.8s-6.5,0-7.3-0.8
			c-0.8-0.8-0.8-4.6-0.8-4.6c0,0,0-2,0.3-3.4l1.3,0.1v0.9h1.1v5.6h1.1v-5.6h1.1l0.4,0.8v4c0,0.3,0.1,0.5,0.2,0.6
			c0.1,0.1,0.3,0.2,0.5,0.2c0.2,0,0.4,0,0.5-0.2c0.2-0.1,0.4-0.2,0.5-0.4v0.5h0.9h0.7h1v-0.4c0.1,0.2,0.3,0.3,0.4,0.3
			c0.1,0.1,0.3,0.1,0.5,0.1c0.3,0,0.5-0.1,0.6-0.3c0.2-0.2,0.2-0.4,0.2-0.8v-0.4h0.5c0,0.5,0.1,0.8,0.4,1.1c0.2,0.3,0.6,0.4,1,0.4
			c0.5,0,0.8-0.1,1.1-0.4C-212.7,447.8-212.6,447.6-212.5,447.2z"/>
		<path class="st0" d="M-213.5,444.7v0.5h-0.8v-0.5c0-0.2,0-0.3,0.1-0.4s0.2-0.1,0.3-0.1c0.1,0,0.3,0,0.3,0.1
			C-213.5,444.4-213.5,444.5-213.5,444.7z"/>
		<path class="st0" d="M-213.9,432.3v5.3h-1.1V437c-0.2,0.2-0.4,0.4-0.6,0.5c-0.2,0.1-0.4,0.2-0.6,0.2c-0.2,0-0.4-0.1-0.6-0.2
			c-0.1-0.2-0.2-0.4-0.2-0.7v-4.4h1.1v4.1c0,0.1,0,0.2,0.1,0.3c0,0.1,0.1,0.1,0.2,0.1c0.1,0,0.2,0,0.3-0.1c0.1-0.1,0.2-0.2,0.3-0.3
			v-4L-213.9,432.3L-213.9,432.3z"/>
		<path class="st0" d="M-216.8,444.6v2.5c0,0.2,0,0.3-0.1,0.3c-0.1,0.1-0.1,0.1-0.3,0.1c-0.1,0-0.2,0-0.2-0.1
			c-0.1,0-0.1-0.1-0.2-0.2v-3c0.1-0.1,0.1-0.1,0.2-0.2c0.1,0,0.1,0,0.2,0c0.1,0,0.2,0,0.3,0.1C-216.8,444.3-216.8,444.5-216.8,444.6
			z"/>
		<path class="st0" d="M-217.8,433.5v2.7c0,0.5-0.1,0.8-0.4,1.1c-0.3,0.3-0.7,0.4-1.1,0.4c-0.5,0-0.8-0.1-1.1-0.4
			c-0.3-0.3-0.4-0.6-0.4-1.1v-2.8c0-0.4,0.1-0.7,0.4-1c0.3-0.2,0.7-0.4,1.2-0.4c0.4,0,0.8,0.1,1.1,0.4
			C-217.9,432.8-217.8,433.1-217.8,433.5z M-218.9,436.3v-2.9c0-0.1,0-0.2-0.1-0.3c-0.1-0.1-0.2-0.1-0.3-0.1c-0.1,0-0.2,0-0.3,0.1
			c-0.1,0.1-0.1,0.2-0.1,0.3v2.9c0,0.1,0,0.3,0.1,0.3c0.1,0.1,0.2,0.1,0.3,0.1c0.1,0,0.3,0,0.3-0.1
			C-218.9,436.6-218.9,436.5-218.9,436.3z"/>
		<polygon class="st0" points="-221,430.4 -222.4,434.6 -222.4,437.6 -223.6,437.6 -223.6,434.7 -225,430.4 -223.8,430.4 
			-223,433.3 -222.9,433.3 -222.2,430.4 		"/>
	</g>
</g>
<g id="XMLID_5_">
	<g>
		<path class="st0" d="M-223.7,351.7c0.6-0.2,0.6-0.2,0.5,0c-0.1,0.1-0.4,0.5-0.8,0.9c-0.6,0.6-0.7,0.7-0.7,1.2
			c0,0.8-0.4,2.5-0.8,3.4c-0.7,1.7-2.3,3.5-3.8,4.5c-2.2,1.3-5,1.6-7.5,0.8c-0.8-0.3-2.2-0.9-2.2-1c0,0,0.4-0.1,0.9-0.1
			c1.1,0,2.1-0.3,3.1-0.9l0.6-0.4l-0.7-0.2c-1-0.3-1.9-1.1-2.1-1.9c-0.1-0.2,0-0.3,0.6-0.3l0.7,0l-0.6-0.3c-0.7-0.3-1.3-0.9-1.6-1.5
			c-0.2-0.4-0.5-1.5-0.4-1.5c0,0,0.3,0,0.5,0.1c0.8,0.3,0.9,0.2,0.4-0.3c-0.8-0.9-1.1-2.2-0.7-3.4l0.2-0.6l0.7,0.7
			c1.5,1.5,3.3,2.4,5.4,2.7l0.6,0.1l0-0.6c-0.1-1.5,0.8-2.8,2.2-3.3c0.5-0.2,1.4-0.2,2,0c0.2,0.1,0.7,0.3,1,0.5l0.6,0.4l0.6-0.2
			c0.3-0.1,0.8-0.3,1-0.4c0.2-0.1,0.4-0.2,0.4-0.1c0,0.2-0.4,0.9-0.8,1.2C-224.8,352-224.7,352-223.7,351.7z"/>
	</g>
</g>
<g>
	<g id="XMLID_3_">
		<g>
			<path class="st0" d="M-275.8,400.2c0,0.1,0,0.2-0.1,0.3c-0.6,0.8-1.5,1.3-2.5,1.6c-0.4,0.1-0.8,0.1-1.2,0.2c-0.1,0-0.2,0-0.2-0.1
				c-0.3-0.3-0.5-0.6-0.8-1c0.9-0.3,1.7-0.7,2.3-1.5c-3.4,1.9-6.7,1.9-10,0c0.1,0.2,0.5,0.6,0.9,0.9c0.4,0.2,0.8,0.4,1.2,0.6
				c0,0-0.1,0.1-0.1,0.2c-0.1,0.2-0.3,0.3-0.4,0.5c-0.2,0.2-0.3,0.3-0.6,0.3c-1.2-0.1-2.3-0.6-3.1-1.4c-0.3-0.3-0.4-0.6-0.4-1.1
				c0.1-2,0.6-4,1.4-5.9c0.1-0.3,0.2-0.5,0.4-0.8c0.1-0.2,0.2-0.3,0.4-0.4c0.8-0.5,1.7-0.9,2.6-1.1c0.2,0,0.4-0.1,0.6-0.1
				c0.1,0,0.2,0.1,0.2,0.1c-0.8,0.3-1.6,0.6-2.3,1c-0.3,0.2-0.6,0.4-0.8,0.5c-0.1,0-0.1,0.1-0.2,0.1c3.4-1.6,6.8-1.7,10.2,0
				c-0.9-0.7-2-1.2-3.1-1.6c0.1-0.2,0.2-0.2,0.4-0.2c1.2,0.1,2.3,0.5,3.2,1.2c0.1,0.1,0.2,0.2,0.2,0.3c0.8,1.5,1.3,3.1,1.6,4.8
				C-275.9,398.7-275.9,399.5-275.8,400.2z M-280.6,399.1c0.9-0.3,1.1-1.5,0.5-2.3c-0.5-0.6-1.4-0.7-1.9-0.1
				c-0.4,0.4-0.5,0.8-0.4,1.3c0.1,0.7,0.7,1.2,1.3,1.2C-280.9,399.2-280.7,399.2-280.6,399.1z M-284.4,397.7c0.1-1-1-1.7-1.9-1.3
				c-0.6,0.3-0.9,1-0.7,1.7c0.2,0.6,0.7,1,1.3,1c0.3,0,0.5-0.1,0.8-0.3C-284.6,398.6-284.5,398.2-284.4,397.7z"/>
		</g>
	</g>
</g>
<g>
	<g id="XMLID_4_">
		<g>
			<rect x="-285.2" y="433.9" class="st0" width="1.6" height="4.2"/>
			<rect x="-288.3" y="433.9" class="st0" width="1.6" height="4.2"/>
			<path class="st0" d="M-281,438.6v-7.3h-10.9v9.9h3.1v2.1l2.1-2.1h3.1L-281,438.6z M-294,432.5l1-2.7h13.5v9.4l-4.2,4.2h-3.1
				l-1.6,2.1h-2.1v-2.1h-3.6V432.5z"/>
		</g>
	</g>
</g>
</svg>
