<?xml version="1.0" encoding="utf-8"?>
<!-- Generator: Adobe Illustrator 16.0.0, SVG Export Plug-In . SVG Version: 6.00 Build 0)  -->
<!DOCTYPE svg PUBLIC "-//W3C//DTD SVG 1.1//EN" "http://www.w3.org/Graphics/SVG/1.1/DTD/svg11.dtd">
<svg version="1.1" id="Calque_1" xmlns="http://www.w3.org/2000/svg" xmlns:xlink="http://www.w3.org/1999/xlink" x="0px" y="0px"
	 width="11.333px" height="17.707px" viewBox="0 0 11.333 17.707" enable-background="new 0 0 11.333 17.707" xml:space="preserve">
<g id="XMLID_6_">
	<g>
		<path fill="#FFFFFF" d="M9.796,5.799L9.471,8.851H7.03v8.853H3.376V8.851H1.545V5.799h1.831V3.969c0-2.49,1.034-3.971,3.963-3.971
			H9.78v3.052H8.258c-1.147,0-1.22,0.431-1.22,1.22L7.03,5.799H9.796z"/>
	</g>
	<g>
	</g>
</g>
<g id="XMLID_1_">
	<g>
		<path fill="#FFFFFF" d="M104.257,43.593c0.781,0.776,0.786,4.617,0.786,4.639c0,0,0,1.091-0.124,2.229l-1.454-0.038
			c0.017-0.108,0.021-0.222,0.021-0.347v-0.244h-0.977v0.217c0,0.282-0.032,0.467-0.092,0.548c-0.065,0.087-0.174,0.125-0.331,0.125
			c-0.152,0-0.255-0.049-0.32-0.146s-0.092-0.271-0.092-0.526v-0.906h1.812v-1.226c0-0.461-0.119-0.809-0.353-1.053
			s-0.564-0.363-0.998-0.363c-0.423,0-0.771,0.13-1.036,0.396c-0.266,0.261-0.401,0.603-0.401,1.021v2.159H100.2v-2.312
			c0-0.391-0.076-0.694-0.233-0.9c-0.157-0.2-0.391-0.304-0.689-0.304c-0.146,0-0.293,0.038-0.434,0.114
			c-0.146,0.076-0.276,0.189-0.407,0.336v-2.104h-0.96v6.525h-0.711V46.62h-0.943v3.656c-0.093,0.104-0.19,0.19-0.299,0.255
			c-0.103,0.071-0.195,0.104-0.26,0.104c-0.093,0-0.152-0.021-0.195-0.076c-0.038-0.049-0.06-0.13-0.06-0.244V46.62h-0.944
			l-0.418-0.765v-0.949H90.37l-1.27-0.082c0.114-0.553,0.271-1.014,0.494-1.231c0.781-0.775,7.328-0.786,7.328-0.786
			S103.476,42.817,104.257,43.593z"/>
		<path fill="#FFFFFF" d="M103.465,50.423l1.454,0.038c-0.104,1.004-0.293,2.051-0.662,2.414c-0.781,0.776-7.335,0.792-7.335,0.792
			s-6.547-0.016-7.328-0.792c-0.782-0.781-0.782-4.611-0.782-4.644c0-0.017,0-2.002,0.288-3.407l1.27,0.082v0.949h1.106v5.576h1.069
			v-5.576h1.101l0.418,0.765v4.025c0,0.287,0.055,0.499,0.163,0.646c0.113,0.141,0.276,0.212,0.499,0.212
			c0.173,0,0.357-0.049,0.548-0.152c0.189-0.103,0.369-0.249,0.548-0.444v0.525h0.943h0.711h0.96v-0.368
			c0.12,0.151,0.261,0.255,0.401,0.325c0.146,0.07,0.31,0.108,0.499,0.108c0.277,0,0.494-0.092,0.641-0.271
			c0.152-0.184,0.223-0.444,0.223-0.786v-0.363h0.499c0,0.466,0.125,0.83,0.363,1.096c0.244,0.266,0.58,0.396,1.004,0.396
			c0.472,0,0.824-0.124,1.063-0.374C103.308,51.004,103.421,50.749,103.465,50.423z"/>
		<path fill="#FFFFFF" d="M102.51,47.906v0.488h-0.835v-0.488c0-0.201,0.032-0.348,0.098-0.435c0.064-0.087,0.173-0.13,0.325-0.13
			c0.141,0,0.25,0.043,0.314,0.13C102.478,47.559,102.51,47.705,102.51,47.906z"/>
		<path fill="#FFFFFF" d="M102.092,35.478v5.306h-1.068v-0.586c-0.189,0.217-0.396,0.385-0.613,0.494
			c-0.211,0.113-0.417,0.173-0.618,0.173c-0.244,0-0.429-0.081-0.554-0.238c-0.124-0.157-0.189-0.396-0.189-0.711v-4.438h1.063
			v4.068c0,0.125,0.027,0.218,0.07,0.271c0.043,0.06,0.119,0.087,0.217,0.087c0.076,0,0.18-0.038,0.299-0.114
			c0.119-0.07,0.228-0.168,0.325-0.281v-4.031H102.092z"/>
		<path fill="#FFFFFF" d="M99.228,47.819v2.484c0,0.157-0.026,0.266-0.087,0.336c-0.054,0.065-0.135,0.104-0.249,0.104
			c-0.081,0-0.157-0.021-0.233-0.055c-0.07-0.032-0.146-0.092-0.223-0.168v-3c0.065-0.07,0.131-0.119,0.195-0.151
			c0.065-0.033,0.131-0.044,0.201-0.044c0.125,0,0.228,0.044,0.293,0.125C99.196,47.531,99.228,47.656,99.228,47.819z"/>
		<path fill="#FFFFFF" d="M98.187,36.726v2.739c0,0.456-0.142,0.809-0.412,1.068c-0.282,0.256-0.662,0.386-1.145,0.386
			c-0.467,0-0.842-0.136-1.118-0.396c-0.282-0.271-0.423-0.629-0.423-1.079v-2.751c0-0.412,0.146-0.737,0.434-0.981
			c0.288-0.244,0.673-0.363,1.156-0.363c0.438,0,0.803,0.125,1.085,0.385C98.045,35.987,98.187,36.318,98.187,36.726z
			 M97.102,39.546v-2.891c0-0.12-0.044-0.212-0.131-0.282c-0.086-0.07-0.2-0.108-0.341-0.108c-0.131,0-0.239,0.038-0.32,0.108
			c-0.082,0.07-0.119,0.162-0.119,0.282v2.891c0,0.142,0.037,0.256,0.113,0.337c0.076,0.076,0.185,0.119,0.326,0.119
			c0.141,0,0.255-0.043,0.341-0.125C97.058,39.796,97.102,39.688,97.102,39.546z"/>
		<polygon fill="#FFFFFF" points="95.002,33.596 93.608,37.8 93.608,40.783 92.41,40.783 92.41,37.936 90.977,33.596 92.187,33.596 
			92.968,36.471 93.044,36.471 93.782,33.596 		"/>
	</g>
	<g>
	</g>
</g>
<g id="XMLID_5_">
	<g>
		<path fill="#FFFFFF" d="M56.802,32.066c0.586-0.195,0.594-0.195,0.48,0.024c-0.065,0.114-0.423,0.521-0.797,0.888
			c-0.635,0.635-0.667,0.699-0.667,1.229c0,0.813-0.391,2.515-0.773,3.45c-0.716,1.741-2.254,3.548-3.784,4.459
			c-2.165,1.27-5.037,1.595-7.462,0.847c-0.806-0.253-2.189-0.896-2.189-1.01c0-0.032,0.415-0.081,0.928-0.089
			c1.074-0.024,2.14-0.326,3.051-0.854l0.61-0.366l-0.708-0.244c-0.993-0.342-1.896-1.14-2.124-1.88
			c-0.065-0.244-0.041-0.252,0.594-0.252l0.659-0.017l-0.562-0.261c-0.659-0.333-1.261-0.902-1.554-1.473
			c-0.22-0.415-0.488-1.456-0.407-1.538c0.024-0.04,0.26,0.033,0.529,0.122c0.79,0.293,0.887,0.22,0.431-0.26
			c-0.846-0.879-1.106-2.173-0.7-3.401l0.195-0.554l0.749,0.749c1.53,1.505,3.336,2.4,5.412,2.66l0.569,0.073l-0.041-0.561
			c-0.098-1.465,0.797-2.8,2.222-3.313c0.521-0.187,1.408-0.211,1.985-0.049c0.228,0.073,0.659,0.301,0.968,0.505l0.553,0.382
			l0.619-0.195c0.342-0.105,0.797-0.276,1.001-0.391c0.195-0.105,0.366-0.162,0.366-0.13c0,0.195-0.423,0.862-0.773,1.237
			C55.703,32.368,55.841,32.417,56.802,32.066z"/>
	</g>
	<g>
	</g>
</g>
<g>
	<g id="XMLID_3_">
		<g>
			<path fill="#FFFFFF" d="M135.297,46.417c0.391,0,0.74-0.122,1.041-0.374c0.513-0.406,0.676-0.968,0.757-1.611
				c0.163-1.343-1.358-2.318-2.53-1.766c-0.83,0.391-1.27,1.399-1.009,2.344C133.792,45.855,134.483,46.417,135.297,46.417z
				 M141.685,46.45c0.203-0.049,0.415-0.073,0.61-0.155c1.18-0.472,1.563-2.059,0.748-3.116c-0.65-0.838-1.854-0.919-2.596-0.163
				c-0.479,0.488-0.626,1.083-0.553,1.75C140.008,45.686,140.798,46.417,141.685,46.45z M146.364,38.053
				c1.033,2.083,1.726,4.271,2.115,6.559c0.188,1.065,0.277,2.147,0.302,3.23c0,0.138-0.049,0.309-0.139,0.415
				c-0.87,1.131-2.026,1.83-3.394,2.188c-0.521,0.139-1.073,0.179-1.61,0.252c-0.09,0.017-0.212-0.016-0.261-0.073
				c-0.366-0.447-0.708-0.87-1.082-1.326c1.261-0.398,2.319-1.009,3.157-2.075c-4.573,2.637-9.081,2.556-13.59,0.058
				c0.114,0.276,0.619,0.797,1.294,1.204c0.513,0.301,1.074,0.554,1.619,0.822c-0.049,0.064-0.122,0.17-0.203,0.268
				c-0.188,0.244-0.406,0.464-0.562,0.717c-0.211,0.333-0.472,0.431-0.87,0.382c-1.645-0.187-3.093-0.765-4.272-1.944
				c-0.432-0.423-0.554-0.871-0.521-1.481c0.138-2.791,0.806-5.46,1.855-8.031c0.146-0.35,0.333-0.691,0.479-1.05
				c0.098-0.252,0.276-0.423,0.505-0.569c1.099-0.732,2.286-1.262,3.597-1.489c0.269-0.041,0.537-0.081,0.813-0.09
				c0.105-0.008,0.212,0.073,0.31,0.146c-1.091,0.375-2.148,0.766-3.125,1.343c-0.391,0.22-0.765,0.488-1.14,0.741
				c-0.081,0.049-0.154,0.122-0.252,0.203c4.663-2.222,9.293-2.336,13.939-0.057c-1.245-1.01-2.678-1.628-4.183-2.116
				c0.113-0.228,0.269-0.276,0.504-0.252c1.628,0.146,3.084,0.748,4.402,1.676C146.176,37.792,146.298,37.914,146.364,38.053z"/>
		</g>
		<g>
		</g>
	</g>
</g>
<g>
	<g id="XMLID_4_">
		<g>
			<rect x="183.372" y="39.718" fill="#FFFFFF" width="1.563" height="4.158"/>
			<rect x="180.255" y="39.718" fill="#FFFFFF" width="1.563" height="4.158"/>
			<path fill="#FFFFFF" d="M187.53,44.396v-7.274h-10.912v9.87h3.125v2.075l2.075-2.075h3.116L187.53,44.396z M174.543,38.229
				l1.041-2.669h13.508v9.357l-4.158,4.15h-3.116l-1.563,2.083h-2.075v-2.083h-3.637V38.229z"/>
		</g>
		<g>
		</g>
	</g>
</g>
</svg>
