<?xml version="1.0" encoding="utf-8"?>
<!-- Generator: Adobe Illustrator 16.0.0, SVG Export Plug-In . SVG Version: 6.00 Build 0)  -->
<!DOCTYPE svg PUBLIC "-//W3C//DTD SVG 1.1//EN" "http://www.w3.org/Graphics/SVG/1.1/DTD/svg11.dtd">
<svg version="1.1" id="Calque_1" xmlns="http://www.w3.org/2000/svg" xmlns:xlink="http://www.w3.org/1999/xlink" x="0px" y="0px"
	 width="31.954px" height="32px" viewBox="0 0 31.954 32" enable-background="new 0 0 31.954 32" xml:space="preserve">
<g>
	<g id="XMLID_7_">
		<g>
		</g>
		<g>
		</g>
	</g>
	<path fill="#FFFFFF" d="M19.595,7.439l-3.637,3.636l-3.603-3.603l-6.729,6.729l10.366,10.367L26.36,14.201L19.595,7.439z
		 M19.614,17.821l-3.62,3.62l-3.586-3.586l-3.654-3.654l3.603-3.602l3.638,3.637l3.636-3.637l3.603,3.602L19.614,17.821z"/>
</g>
<g>
	<g id="Outline_Filled_1_">
		<path fill="#FFFFFF" d="M-144.904,80.107c-0.05,0-0.1,0-0.147-0.004l0,0c-0.031,0.002-0.065,0.004-0.098,0.004
			c-1.148,0-1.887-0.521-2.602-1.025c-0.492-0.348-0.957-0.676-1.504-0.768c-0.268-0.045-0.534-0.066-0.791-0.066
			c-0.462,0-0.828,0.072-1.094,0.124c-0.163,0.032-0.302,0.06-0.409,0.06c-0.111,0-0.231-0.024-0.285-0.203
			c-0.046-0.155-0.077-0.305-0.109-0.449c-0.081-0.373-0.14-0.604-0.296-0.627c-1.822-0.281-2.345-0.665-2.461-0.938
			c-0.017-0.039-0.026-0.078-0.028-0.117c-0.007-0.105,0.068-0.196,0.171-0.215c2.803-0.461,4.059-3.325,4.112-3.447
			c0-0.002,0.002-0.006,0.003-0.01c0.173-0.347,0.205-0.648,0.101-0.896c-0.192-0.453-0.819-0.651-1.234-0.783
			c-0.103-0.033-0.198-0.063-0.273-0.094c-0.83-0.327-0.898-0.662-0.866-0.834c0.056-0.293,0.446-0.496,0.762-0.496
			c0.086,0,0.162,0.016,0.227,0.047c0.372,0.174,0.709,0.262,0.999,0.262c0.399,0,0.575-0.168,0.596-0.189
			c-0.01-0.189-0.022-0.389-0.034-0.592c-0.083-1.325-0.188-2.971,0.231-3.911c1.256-2.817,3.921-3.036,4.706-3.036
			c0.021,0,0.346-0.004,0.346-0.004h0.047c0.789,0,3.459,0.221,4.716,3.039c0.418,0.939,0.314,2.587,0.231,3.911l-0.003,0.058
			c-0.011,0.184-0.022,0.363-0.032,0.535c0.02,0.021,0.181,0.174,0.543,0.189l0,0c0.276-0.01,0.594-0.1,0.942-0.262
			c0.102-0.047,0.215-0.057,0.291-0.057c0.118,0,0.237,0.023,0.336,0.064l0.006,0.002c0.282,0.1,0.467,0.297,0.471,0.504
			c0.005,0.193-0.145,0.484-0.871,0.772c-0.075,0.028-0.171,0.06-0.274,0.092c-0.416,0.132-1.042,0.331-1.234,0.784
			c-0.104,0.248-0.071,0.549,0.101,0.896c0.002,0.004,0.003,0.007,0.005,0.01c0.051,0.122,1.307,2.985,4.11,3.447
			c0.104,0.017,0.177,0.109,0.172,0.215c-0.003,0.039-0.011,0.078-0.029,0.117c-0.115,0.271-0.638,0.653-2.46,0.936
			c-0.149,0.022-0.207,0.217-0.296,0.623c-0.033,0.148-0.065,0.293-0.11,0.447c-0.039,0.134-0.121,0.195-0.261,0.195h-0.023
			c-0.097,0-0.233-0.018-0.408-0.052c-0.309-0.06-0.655-0.116-1.094-0.116c-0.258,0-0.523,0.023-0.791,0.066
			c-0.548,0.092-1.012,0.419-1.503,0.767C-143.017,79.585-143.755,80.107-144.904,80.107z"/>
	</g>
	<g id="XMLID_8_">
		<g>
		</g>
		<g>
		</g>
	</g>
</g>
<g>
	<path fill="#FFFFFF" d="M-119.696,37.648h-10.283c-1.784,0-3.217,1.43-3.217,3.215v3.43v6.857c0,1.787,1.433,3.215,3.217,3.215
		h10.283c1.784,0,3.217-1.428,3.217-3.215v-6.857v-3.43C-116.479,39.078-117.912,37.648-119.696,37.648z M-118.766,39.578h0.353
		v0.357v2.5h-2.855v-2.857H-118.766z M-127.194,44.292c0.501-0.715,1.426-1.215,2.356-1.215s1.854,0.5,2.356,1.215
		c0.359,0.5,0.57,1.072,0.57,1.715c0,1.643-1.354,2.928-2.927,2.928c-1.573,0-2.928-1.285-2.928-2.928
		C-127.766,45.365-127.554,44.792-127.194,44.292z M-118.124,51.15c0,0.857-0.712,1.572-1.572,1.572h-10.283
		c-0.861,0-1.573-0.715-1.573-1.572v-6.857h2.504c-0.218,0.5-0.359,1.143-0.359,1.715c0,2.5,2.074,4.57,4.57,4.57
		s4.569-2.07,4.569-4.57c0-0.572-0.141-1.215-0.353-1.715h2.497V51.15L-118.124,51.15z"/>
	<rect x="-141.117" y="30.32" fill="none" width="32" height="32"/>
</g>
<g>
	<g>
		<g id="XMLID_4_">
			<g>
				<rect x="-72.802" y="133.522" fill="#FFFFFF" width="1.554" height="4.158"/>
				<rect x="-75.927" y="133.522" fill="#FFFFFF" width="1.57" height="4.158"/>
				<path fill="#FFFFFF" d="M-76.439,140.797v2.075l2.083-2.075h3.108l2.604-2.596v-7.275h-10.912v9.871H-76.439z M-67.09,138.722
					l-4.158,4.15h-3.108l-1.57,2.083h-2.075v-2.083h-3.621v-10.839l1.025-2.669h13.508V138.722z"/>
			</g>
			<g>
			</g>
		</g>
	</g>
	<rect x="-90.117" y="121.32" fill="none" width="32" height="32"/>
</g>
</svg>
