<?xml version="1.0" encoding="utf-8"?>
<!-- Generator: Adobe Illustrator 16.0.0, SVG Export Plug-In . SVG Version: 6.00 Build 0)  -->
<!DOCTYPE svg PUBLIC "-//W3C//DTD SVG 1.1//EN" "http://www.w3.org/Graphics/SVG/1.1/DTD/svg11.dtd">
<svg version="1.1" id="Calque_1" xmlns="http://www.w3.org/2000/svg" xmlns:xlink="http://www.w3.org/1999/xlink" x="0px" y="0px"
	 width="21.333px" height="20.072px" viewBox="0 0 21.333 20.072" enable-background="new 0 0 21.333 20.072" xml:space="preserve">
<g id="XMLID_6_">
	<g>
		<path fill="#FFFFFF" d="M91.212-8.391l-0.325,3.052h-2.441v8.853h-3.654v-8.853h-1.831v-3.052h1.831v-1.831
			c0-2.49,1.034-3.971,3.963-3.971h2.441v3.052h-1.522c-1.147,0-1.22,0.431-1.22,1.22l-0.008,1.53H91.212z"/>
	</g>
	<g>
	</g>
</g>
<g id="XMLID_1_">
	<g>
		<path fill="#FFFFFF" d="M17.898,9.998c0.781,0.776,0.787,4.617,0.787,4.638c0,0,0,1.091-0.125,2.229l-1.454-0.038
			c0.016-0.108,0.021-0.222,0.021-0.347v-0.244h-0.977v0.217c0,0.282-0.032,0.467-0.092,0.548c-0.065,0.087-0.173,0.125-0.331,0.125
			c-0.152,0-0.255-0.049-0.32-0.146c-0.065-0.098-0.092-0.271-0.092-0.526v-0.906h1.812v-1.226c0-0.461-0.119-0.809-0.353-1.053
			s-0.564-0.363-0.998-0.363c-0.423,0-0.771,0.13-1.036,0.396c-0.266,0.261-0.401,0.603-0.401,1.021v2.159h-0.5v-2.312
			c0-0.391-0.076-0.694-0.233-0.9c-0.157-0.2-0.391-0.304-0.689-0.304c-0.146,0-0.293,0.038-0.434,0.114
			c-0.146,0.076-0.277,0.189-0.407,0.336v-2.104h-0.96v6.525h-0.71v-4.812H9.462v3.656c-0.092,0.104-0.19,0.19-0.298,0.255
			c-0.104,0.071-0.195,0.104-0.261,0.104c-0.092,0-0.152-0.021-0.195-0.076c-0.038-0.049-0.06-0.13-0.06-0.244v-3.694H7.705
			L7.287,12.26v-0.949H4.01l-1.27-0.082c0.114-0.553,0.271-1.015,0.494-1.231c0.781-0.776,7.329-0.787,7.329-0.787
			S17.117,9.222,17.898,9.998z"/>
		<path fill="#FFFFFF" d="M17.106,16.828l1.454,0.038c-0.103,1.004-0.293,2.051-0.662,2.414c-0.781,0.776-7.334,0.792-7.334,0.792
			s-6.548-0.016-7.329-0.792c-0.781-0.781-0.781-4.611-0.781-4.644c0-0.017,0-2.002,0.288-3.407l1.27,0.082v0.949h1.106v5.576h1.069
			V12.26h1.102l0.417,0.765v4.025c0,0.287,0.054,0.499,0.163,0.646c0.114,0.141,0.277,0.212,0.499,0.212
			c0.174,0,0.358-0.049,0.548-0.152c0.189-0.103,0.369-0.249,0.548-0.444v0.525h0.944h0.71h0.96v-0.368
			c0.119,0.151,0.26,0.255,0.401,0.325c0.146,0.07,0.309,0.108,0.499,0.108c0.277,0,0.494-0.092,0.64-0.271
			c0.152-0.184,0.222-0.444,0.222-0.786v-0.363h0.5c0,0.466,0.125,0.83,0.363,1.096c0.244,0.266,0.581,0.396,1.003,0.396
			c0.472,0,0.825-0.124,1.063-0.374C16.948,17.409,17.063,17.154,17.106,16.828z"/>
		<path fill="#FFFFFF" d="M16.151,14.311v0.488h-0.835v-0.488c0-0.201,0.033-0.348,0.098-0.435c0.065-0.087,0.174-0.13,0.326-0.13
			c0.141,0,0.25,0.043,0.314,0.13C16.119,13.963,16.151,14.11,16.151,14.311z"/>
		<path fill="#FFFFFF" d="M15.733,1.882v5.306h-1.069V6.602c-0.19,0.217-0.396,0.385-0.613,0.494
			C13.84,7.209,13.634,7.27,13.433,7.27c-0.244,0-0.429-0.082-0.553-0.239c-0.125-0.157-0.19-0.396-0.19-0.711V1.882h1.063v4.069
			c0,0.125,0.027,0.217,0.07,0.271c0.043,0.06,0.12,0.087,0.217,0.087c0.076,0,0.179-0.038,0.298-0.114
			c0.119-0.071,0.228-0.168,0.325-0.282V1.882H15.733z"/>
		<path fill="#FFFFFF" d="M12.869,14.224v2.484c0,0.157-0.027,0.266-0.087,0.336c-0.054,0.065-0.136,0.104-0.25,0.104
			c-0.082,0-0.157-0.021-0.233-0.055c-0.07-0.032-0.146-0.092-0.222-0.168v-3c0.065-0.07,0.13-0.119,0.195-0.151
			c0.065-0.033,0.13-0.044,0.201-0.044c0.125,0,0.228,0.044,0.293,0.125C12.836,13.936,12.869,14.061,12.869,14.224z"/>
		<path fill="#FFFFFF" d="M11.828,3.13V5.87c0,0.456-0.141,0.809-0.413,1.069c-0.282,0.255-0.662,0.385-1.145,0.385
			c-0.466,0-0.841-0.136-1.118-0.396C8.871,6.656,8.73,6.298,8.73,5.848v-2.75c0-0.412,0.146-0.738,0.434-0.982
			c0.287-0.244,0.672-0.363,1.155-0.363c0.439,0,0.803,0.125,1.085,0.385C11.687,2.393,11.828,2.723,11.828,3.13z M10.743,5.951
			V3.06c0-0.119-0.043-0.211-0.13-0.282c-0.087-0.071-0.201-0.109-0.342-0.109c-0.13,0-0.239,0.038-0.32,0.109
			c-0.082,0.07-0.12,0.163-0.12,0.282v2.892c0,0.141,0.038,0.255,0.114,0.336c0.076,0.076,0.185,0.119,0.326,0.119
			s0.255-0.043,0.342-0.125C10.699,6.201,10.743,6.092,10.743,5.951z"/>
		<polygon fill="#FFFFFF" points="8.643,0 7.249,4.204 7.249,7.188 6.05,7.188 6.05,4.34 4.618,0 5.828,0 6.609,2.875 6.685,2.875 
			7.422,0 		"/>
	</g>
	<g>
	</g>
</g>
<g id="XMLID_5_">
	<g>
		<path fill="#FFFFFF" d="M70.267-35.251c0.586-0.195,0.594-0.195,0.48,0.024c-0.065,0.114-0.423,0.521-0.797,0.887
			c-0.635,0.635-0.667,0.7-0.667,1.229c0,0.813-0.391,2.514-0.773,3.45c-0.716,1.741-2.254,3.548-3.784,4.459
			c-2.165,1.27-5.037,1.595-7.462,0.846c-0.806-0.252-2.189-0.895-2.189-1.009c0-0.033,0.415-0.082,0.928-0.089
			c1.074-0.024,2.14-0.326,3.051-0.854l0.61-0.366l-0.708-0.244c-0.993-0.342-1.896-1.139-2.124-1.88
			c-0.065-0.244-0.041-0.252,0.594-0.252l0.659-0.017l-0.562-0.26c-0.659-0.333-1.261-0.903-1.554-1.473
			c-0.22-0.415-0.488-1.457-0.407-1.538c0.024-0.041,0.26,0.032,0.529,0.122c0.79,0.293,0.887,0.22,0.431-0.26
			c-0.846-0.879-1.106-2.173-0.7-3.401l0.195-0.554l0.749,0.749c1.53,1.506,3.336,2.401,5.412,2.661l0.569,0.073l-0.041-0.562
			c-0.098-1.465,0.797-2.799,2.222-3.312c0.521-0.187,1.408-0.211,1.985-0.049c0.228,0.073,0.659,0.301,0.968,0.505l0.553,0.382
			l0.619-0.195c0.342-0.106,0.797-0.277,1.001-0.391c0.195-0.106,0.366-0.163,0.366-0.13c0,0.195-0.423,0.863-0.773,1.237
			C69.168-34.951,69.306-34.902,70.267-35.251z"/>
	</g>
	<g>
	</g>
</g>
<g>
	<g id="XMLID_3_">
		<g>
			<path fill="#FFFFFF" d="M154.114,49.926c0,0.138-0.049,0.309-0.139,0.415c-0.87,1.131-2.026,1.83-3.394,2.188
				c-0.521,0.139-1.073,0.179-1.61,0.252c-0.09,0.017-0.212-0.016-0.261-0.073c-0.366-0.447-0.708-0.87-1.082-1.326
				c1.261-0.398,2.319-1.009,3.157-2.075c-4.573,2.637-9.081,2.556-13.59,0.058c0.114,0.276,0.619,0.797,1.294,1.204
				c0.513,0.301,1.074,0.554,1.619,0.822c-0.049,0.064-0.122,0.17-0.203,0.268c-0.188,0.244-0.406,0.464-0.562,0.717
				c-0.211,0.333-0.472,0.431-0.87,0.382c-1.645-0.187-3.093-0.765-4.272-1.944c-0.432-0.423-0.554-0.871-0.521-1.481
				c0.138-2.791,0.806-5.46,1.855-8.031c0.146-0.35,0.333-0.691,0.479-1.05c0.098-0.252,0.276-0.423,0.505-0.569
				c1.099-0.732,2.286-1.262,3.597-1.489c0.269-0.041,0.537-0.081,0.813-0.09c0.105-0.008,0.212,0.073,0.31,0.146
				c-1.091,0.375-2.148,0.766-3.125,1.343c-0.391,0.22-0.765,0.488-1.14,0.741c-0.081,0.049-0.154,0.122-0.252,0.203
				c4.663-2.222,9.293-2.336,13.939-0.057c-1.245-1.01-2.678-1.628-4.183-2.116c0.113-0.228,0.269-0.276,0.504-0.252
				c1.628,0.146,3.084,0.748,4.402,1.676c0.122,0.09,0.244,0.212,0.31,0.351c1.033,2.083,1.726,4.271,2.115,6.559
				C154,47.761,154.089,48.843,154.114,49.926z M147.628,48.379c1.18-0.472,1.563-2.059,0.748-3.116
				c-0.65-0.838-1.854-0.919-2.596-0.163c-0.479,0.488-0.626,1.083-0.553,1.75c0.113,0.92,0.903,1.651,1.79,1.685
				C147.221,48.486,147.433,48.461,147.628,48.379z M142.428,46.516c0.163-1.343-1.358-2.318-2.53-1.766
				c-0.83,0.391-1.27,1.399-1.009,2.344c0.235,0.846,0.927,1.407,1.741,1.407c0.391,0,0.74-0.122,1.041-0.374
				C142.184,47.721,142.347,47.16,142.428,46.516z"/>
		</g>
		<g>
		</g>
	</g>
</g>
<g>
	<g id="XMLID_4_">
		<g>
			<rect x="188.705" y="41.802" fill="#FFFFFF" width="1.563" height="4.158"/>
			<rect x="185.588" y="41.802" fill="#FFFFFF" width="1.563" height="4.158"/>
			<path fill="#FFFFFF" d="M192.863,46.481v-7.274h-10.912v9.87h3.125v2.075l2.075-2.075h3.116L192.863,46.481z M179.876,40.313
				l1.041-2.669h13.508v9.357l-4.158,4.15h-3.116l-1.563,2.083h-2.075v-2.083h-3.637V40.313z"/>
		</g>
		<g>
		</g>
	</g>
</g>
</svg>
